<svg width="347" height="161" fill="none" xmlns="http://www.w3.org/2000/svg"><mask id="path-1-inside-1" fill="#fff"><path fill-rule="evenodd" clip-rule="evenodd" d="M0 10C0 4.477 4.477 0 10 0h327c5.523 0 10 4.491 10 10.014V75.35a1.05 1.05 0 00-.178.133l-5.025 4.633a1 1 0 000 1.47l5.025 4.634c.057.052.116.096.178.132v64.338c0 5.523-4.477 10.014-10 10.014H10c-5.523 0-10-4.477-10-10V86.352c.062-.036.121-.08.178-.132l5.025-4.634a1 1 0 000-1.47L.178 75.483A1.042 1.042 0 000 75.35V10z"/></mask><path d="M347 75.35l.507.863.493-.29v-.573h-1zm-.178.133l-.678-.735.678.735zm-5.025 4.633l-.678-.735.678.735zm0 1.47l-.678.736.678-.736zm5.025 4.634l-.678.735.678-.735zm.178.132h1v-.572l-.493-.29-.507.862zm-347 0l-.507-.862-.493.29v.572h1zm.178-.132l-.678-.736.678.736zm5.025-4.634l-.678-.735.678.735zm0-1.47l-.678.735.678-.735zM.178 75.483l-.678.735.678-.735zM0 75.35h-1v.573l.493.29L0 75.35zM10-1C3.925-1-1 3.925-1 10h2a9 9 0 019-9v-2zm327 0H10v2h327v-2zm11 11.014C348 3.94 343.077-1 337-1v2c4.969 0 9 4.042 9 9.014h2zm0 65.336V10.014h-2V75.35h2zm-.5.868c.005-.005.007-.006.007-.005l-1.014-1.725c-.124.073-.241.16-.349.26l1.356 1.47zm-5.025 4.633l5.025-4.633-1.356-1.47-5.025 4.633 1.356 1.47zm0 0l-1.356-1.47a2 2 0 000 2.94l1.356-1.47zm5.025 4.633l-5.025-4.633-1.356 1.47 5.025 4.634 1.356-1.47zm.007.006l-.007-.006-1.356 1.47c.108.1.225.187.349.26l1.014-1.724zm.493 65.2V86.352h-2v64.338h2zm-11 11.014c6.077 0 11-4.94 11-11.014h-2c0 4.973-4.031 9.014-9 9.014v2zm-327 0h327v-2H10v2zm-11-11c0 6.075 4.925 11 11 11v-2a9 9 0 01-9-9h-2zm0-64.352v64.352h2V86.352h-2zm.5-.868l-.007.006 1.014 1.724c.124-.073.24-.16.349-.26L-.5 85.485zm5.025-4.633L-.5 85.484l1.356 1.47 5.025-4.632-1.356-1.47zm0 0l1.356 1.47a2 2 0 000-2.94l-1.356 1.47zM-.5 76.218l5.025 4.633 1.356-1.47-5.025-4.633-1.356 1.47zm-.007-.005s.002 0 .007.005l1.356-1.47a2.037 2.037 0 00-.35-.26l-1.013 1.725zM-1 10v65.35h2V10h-2z" fill="#DF212D" mask="url(#path-1-inside-1)"/></svg>