<svg width="354" height="169" fill="none" xmlns="http://www.w3.org/2000/svg"><g filter="url(#filter0_d)"><path fill-rule="evenodd" clip-rule="evenodd" d="M14 0C8.477 0 4 4.477 4 10v64.653c.07.042.137.093.2.155l5.073 4.978a1 1 0 010 1.428L4.2 86.192c-.063.062-.13.113-.2.155V151c0 5.523 4.477 10 10 10h326c5.523 0 10-4.491 10-10.014v-64.64a1.037 1.037 0 01-.2-.154l-5.073-4.978a1 1 0 010-1.428l5.073-4.978a1.04 1.04 0 01.2-.155V10.014C350 4.491 345.523 0 340 0H14z" fill="#fff"/></g><defs><filter id="filter0_d" x="0" y="0" width="354" height="169" filterUnits="userSpaceOnUse" color-interpolation-filters="sRGB"><feFlood flood-opacity="0" result="BackgroundImageFix"/><feColorMatrix in="SourceAlpha" values="0 0 0 0 0 0 0 0 0 0 0 0 0 0 0 0 0 0 127 0"/><feOffset dy="4"/><feGaussianBlur stdDeviation="2"/><feColorMatrix values="0 0 0 0 0 0 0 0 0 0 0 0 0 0 0 0 0 0 0.25 0"/><feBlend in2="BackgroundImageFix" result="effect1_dropShadow"/><feBlend in="SourceGraphic" in2="effect1_dropShadow" result="shape"/></filter></defs></svg>